<svg class="svg-icon" style="width: 1em; height: 1em;vertical-align: middle;fill: currentColor;overflow: hidden;" viewBox="0 0 1024 1024" version="1.1" xmlns="http://www.w3.org/2000/svg"><path d="M782 862.5H237c-3 0-5.9-1.2-7.9-3.4-2-2.1-3-4.9-2.8-7.8L262 324c0.4-5.5 5.1-9.8 10.7-9.8H577c2.8 0 5 2.2 5 5s-2.2 5-5 5H272.6c-0.4 0-0.7 0.2-0.7 0.5L236.3 852s0 0.2 0.1 0.3c0.1 0.1 0.3 0.2 0.6 0.2h545c0.3 0 0.5-0.1 0.6-0.2 0.1-0.1 0.1-0.3 0.1-0.3l-32.3-527.3c0-0.2-0.3-0.5-0.7-0.5h-73.5c-2.8 0-5-2.2-5-5s2.2-5 5-5h73.5c5.7 0 10.3 4.3 10.7 9.9l32.3 527.3c0.2 2.9-0.8 5.6-2.8 7.8-2.1 2.1-4.9 3.3-7.9 3.3z" fill="#AB5B41" /><path d="M387.8 327.3c-4.4 0-8-3.6-8-8 0-43.9 13.2-85.3 37.3-116.4 24.5-31.8 57.3-49.3 92.4-49.3 26.5 0 52 10.3 73.8 29.9 20.8 18.6 36.8 44.4 46.3 74.4 1.3 4.2-1 8.7-5.2 10-4.2 1.3-8.7-1-10-5.2-8.7-27.3-23.1-50.6-41.8-67.3-18.8-16.9-40.6-25.8-63.1-25.8-62.7 0-113.7 67.2-113.7 149.8 0 4.3-3.6 7.9-8 7.9zM448.2 375.7c10.5-0.1 20.7 0.2 30.9 0.4s20.3 0.4 30.5 0.5c10.1 0.1 20.2 0 30.4-0.1 2.5-0.1 5.1-0.1 7.6-0.1 2.5-0.1 5.1-0.2 7.7-0.3l3.9-0.1 3.9-0.2c2.6-0.1 5.2-0.2 7.8-0.1-2.4 1-4.8 2-7.3 2.9-1.2 0.5-2.5 0.9-3.7 1.3L556 381c-2.5 0.7-5.1 1.4-7.6 1.9-2.6 0.5-5.1 1-7.7 1.4-10.3 1.7-20.8 2.5-31.2 2.3-10.4-0.1-20.8-1-31.1-2.7-2.6-0.5-5.1-0.9-7.7-1.5-2.5-0.6-5.1-1.1-7.6-1.8s-5-1.4-7.5-2.2c-2.5-0.7-5-1.6-7.4-2.7z" fill="#AB5B41" /><path d="M386 528.2c0-58.9 20.6-92.3 53.4-92.3 33.1 0 53.4 33.3 53.4 92.3 0 60.2-20.3 93.9-53.4 93.9-32.8 0-53.4-33.7-53.4-93.9z m90.5 0c0-49.2-14.9-76-37.2-76s-36.8 26.8-36.8 76c0 49.6 14.5 77.6 36.8 77.6s37.2-28 37.2-77.6zM587.4 436c5.2 0 8.5 6.6 6 12.1L463.6 738.5c-1.2 2.7-3.5 4.3-6 4.3-5.2 0-8.5-6.6-6-12.1l129.9-290.4c1.1-2.7 3.4-4.3 5.9-4.3z m-34.5 213.4c0-59.3 20.6-92.7 53.7-92.7 32.4 0 53.4 33.3 53.4 92.7 0 60.2-21 93.5-53.4 93.5-33.1-0.1-53.7-33.4-53.7-93.5z m90.6 0c0-49.6-14.9-76.4-36.8-76.4-22.6 0-37.2 26.8-37.2 76.4s14.5 77.2 37.2 77.2c21.9 0 36.8-27.7 36.8-77.2z" fill="#AB5B41" /><path d="M606.6 747.8c-18.3 0-33.4-9.2-43.6-26.7-10-17.1-15.1-41.3-15.1-71.8 0-61.2 22-97.7 58.7-97.7 18 0 32.9 9.2 43.2 26.5 10 16.9 15.2 41.5 15.2 71.1 0 61.8-21.8 98.6-58.4 98.6z m0-186.1c-14.7 0-26.5 7.3-35 21.6-9 15.2-13.8 38.1-13.8 66.1 0 28.3 4.8 51.4 13.8 66.8 8.4 14.4 20.2 21.7 35 21.7 30.3 0 48.4-33.1 48.4-88.5 0-54.9-18-87.7-48.4-87.7z m-149 186.1c-3.9 0-7.3-2-9.6-5.4-2.6-4-3-9.3-1-13.7l129.9-290.4c2-4.5 6.1-7.3 10.6-7.3 3.9 0 7.3 2 9.6 5.4 2.6 4 3 9.3 1 13.7L468.2 740.6c-2.1 4.5-6.1 7.2-10.6 7.2zM587.4 441c-0.4 0-1 0.4-1.5 1.4L456.1 732.8c-0.7 1.6-0.4 3.2 0.3 4.2 0.2 0.3 0.6 0.9 1.2 0.9 0.5 0 1.1-0.6 1.5-1.4L588.9 446c0.7-1.6 0.4-3.2-0.3-4.2-0.2-0.3-0.6-0.8-1.2-0.8z m19.2 290.6c-26.4 0-42.2-30.7-42.2-82.2 0-25.1 3.6-45 10.6-59 9.3-18.5 22.3-22.4 31.5-22.4 26.2 0 41.8 30.4 41.8 81.4 0 24.7-3.7 45.2-10.7 59.4-9.1 18.8-21.9 22.8-31 22.8z m0-153.7c-20.1 0-32.2 26.7-32.2 71.4 0 44.6 12.3 72.2 32.2 72.2 19.6 0 31.8-27.7 31.8-72.2 0.1-44-12.1-71.4-31.8-71.4z m-167.2 49.2c-36.6 0-58.4-37-58.4-98.9 0-60.9 21.8-97.3 58.4-97.3s58.4 36.4 58.4 97.3c0 30.6-5 54.8-14.9 72-10.3 17.6-25.3 26.9-43.5 26.9z m0-186.1c-30.3 0-48.4 32.6-48.4 87.3 0 55.7 18.1 88.9 48.4 88.9 14.7 0 26.4-7.4 34.8-21.9 8.9-15.4 13.6-38.6 13.6-67 0-27.8-4.7-50.5-13.6-65.7-8.4-14.4-20.1-21.6-34.8-21.6z m0 169.9c-26.2 0-41.8-30.9-41.8-82.6 0-50.7 15.6-81 41.8-81 26.4 0 42.2 30.3 42.2 81 0 24.7-3.7 45.4-10.7 59.6-9.5 19-22.4 23-31.5 23z m0-153.7c-9.2 0-16.7 5.7-22.3 16.8-6.2 12.5-9.5 31.2-9.5 54.2 0 44.8 12.2 72.6 31.8 72.6 19.8 0 32.2-27.8 32.2-72.6-0.1-43.8-12.4-71-32.2-71z" fill="#AB5B41" /><path d="M622.9 376.9c-2.3 0-4.7-0.3-7-0.9-12.8-3.3-21.4-15.2-21-28-12.7-2.1-22.8-12.7-23.6-26-0.8-13.2 7.9-25 20.2-28.7-2-12.7 5.1-25.6 17.5-30.5 12.3-4.9 26.2-0.2 33.5 10.3 11.5-5.8 25.9-3.1 34.4 7.2 8.4 10.2 8.3 24.9 0.5 35 9 9.1 10.9 23.7 3.8 34.9-7.1 11.2-21.1 15.6-33.1 11.3-4.9 9.5-14.7 15.4-25.2 15.4z m-22.3-38.6c1.5 0 2.9 0.7 3.9 1.8 1 1.2 1.4 2.8 1 4.4-2.3 9.6 3.5 19.4 13 21.8 9.6 2.5 19.4-3.3 22-12.8 0.4-1.5 1.5-2.8 3-3.3 1.5-0.6 3.1-0.4 4.5 0.4 8.4 5.2 19.5 2.6 24.8-5.6 5.3-8.3 2.9-19.5-5.4-24.9-1.3-0.9-2.2-2.3-2.3-3.9-0.1-1.6 0.6-3.1 1.8-4.1 7.5-6.4 8.5-17.7 2.3-25.3-6.3-7.6-17.6-8.8-25.3-2.6-1.2 1-2.9 1.3-4.4 1-1.5-0.4-2.8-1.5-3.4-3-3.7-9.1-14.2-13.6-23.4-10-9.2 3.6-13.8 14.1-10.3 23.3 0.6 1.5 0.4 3.1-0.5 4.5-0.8 1.3-2.3 2.2-3.8 2.3-9.8 0.7-17.3 9.3-16.7 19.1 0.6 9.9 9.1 17.5 19 17 0-0.1 0.1-0.1 0.2-0.1z" fill="#AB5B41" /><path d="M631.2 325.9c-0.7 0-1.5-0.1-2.2-0.4-1.7-0.6-3-1.8-3.8-3.4-0.8-1.6-0.9-3.4-0.3-5.1 0.6-1.7 1.8-3 3.4-3.8 1.6-0.8 3.4-0.9 5.1-0.3 1.7 0.6 3 1.8 3.8 3.4 0.8 1.6 0.9 3.4 0.3 5.1-0.6 1.7-1.8 3-3.4 3.8-0.9 0.5-1.9 0.7-2.9 0.7z m0-9.3c-0.4 0-0.8 0.1-1.2 0.3-0.6 0.3-1.1 0.8-1.4 1.5-0.2 0.7-0.2 1.4 0.1 2 0.3 0.6 0.8 1.1 1.5 1.4 0.7 0.2 1.4 0.2 2-0.1 0.6-0.3 1.1-0.8 1.4-1.5 0.2-0.7 0.2-1.4-0.1-2-0.3-0.6-0.8-1.1-1.5-1.4-0.2-0.1-0.5-0.2-0.8-0.2z" fill="#AB5B41" /><path d="M622 347.6c-0.2 0-0.4 0-0.7-0.1-1-0.4-1.6-1.5-1.2-2.5l9.2-26.4c0.4-1 1.5-1.6 2.5-1.2 1 0.4 1.6 1.5 1.2 2.5l-9.2 26.4c-0.2 0.8-1 1.3-1.8 1.3z" fill="#AB5B41" /><path d="M653.5 338.1c-0.4 0-0.8-0.1-1.2-0.4L630 320.9c-0.9-0.7-1.1-1.9-0.4-2.8 0.7-0.9 1.9-1.1 2.8-0.4l22.2 16.9c0.9 0.7 1.1 1.9 0.4 2.8-0.3 0.5-0.9 0.7-1.5 0.7z" fill="#AB5B41" /><path d="M631.2 321.3c-0.6 0-1.3-0.3-1.6-0.9-0.6-0.9-0.4-2.2 0.5-2.8l22.9-15.9c0.9-0.6 2.2-0.4 2.8 0.5 0.6 0.9 0.4 2.2-0.5 2.8l-22.9 15.9c-0.4 0.2-0.8 0.4-1.2 0.4z" fill="#AB5B41" /><path d="M631.2 321.3c-0.9 0-1.7-0.6-1.9-1.4l-8.1-26.7c-0.3-1.1 0.3-2.2 1.3-2.5 1.1-0.3 2.2 0.3 2.5 1.3l8.1 26.7c0.3 1.1-0.3 2.2-1.3 2.5-0.2 0-0.4 0.1-0.6 0.1z" fill="#AB5B41" /><path d="M631.2 321.3l-28-0.6c-1.1 0-2-0.9-2-2s0.9-2 2-2l27.9 0.6c1.1 0 2 0.9 2 2 0.1 1.1-0.8 2-1.9 2z" fill="#AB5B41" /></svg>