<svg class="svg-icon" style="width: 1em; height: 1em;vertical-align: middle;fill: currentColor;overflow: hidden;" viewBox="0 0 1024 1024" version="1.1" xmlns="http://www.w3.org/2000/svg"><path d="M176 324.4h672V800a48 48 0 0 1-48 48H224a48 48 0 0 1-48-48V324.4z" fill="#52E355" /><path d="M800 804.44H224a48 48 0 0 1-48-48v-432h672v432a48 48 0 0 1-48 48z" fill="#90FC95" /><path d="M176 324.4v206.32h3.2a122.72 122.72 0 0 0 83.2-32.44 122.96 122.96 0 0 0 166.4 0 122.92 122.92 0 0 0 166.4 0 122.96 122.96 0 0 0 166.4 0 122.72 122.72 0 0 0 83.2 32.44h3.2V324.4z" fill="#52E355" /><path d="M800 856H224a56 56 0 0 1-56-56V324.4a8 8 0 0 1 8-8h672a8 8 0 0 1 8 8V800a56 56 0 0 1-56 56zM184 332.4V800a40 40 0 0 0 40 40h576a40 40 0 0 0 40-40V332.4z" fill="#2FB1EA" /><path d="M928 324.4H96l66.2-124A48 48 0 0 1 204 176h616a48 48 0 0 1 41.72 24.24z" fill="#CBECF9" /><path d="M908.8 288.4l-47-88A48 48 0 0 0 820 176H204a48 48 0 0 0-41.72 24.24L115.2 288.4z" fill="#FFFFFF" /><path d="M928 332.4H96a8 8 0 0 1-7.04-11.76l66.2-124A56 56 0 0 1 204 168h616a56 56 0 0 1 48.64 28.28l66.32 124.36A8 8 0 0 1 928 332.4z m-818.68-16h805.36l-60-112.4a40 40 0 0 0-34.68-20H204a40 40 0 0 0-34.76 20z" fill="#2FB1EA" /><path d="M96 324.4h166.4v83.2a83.2 83.2 0 0 1-83.2 83.2A83.2 83.2 0 0 1 96 407.6V324.4z" fill="#F97171" /><path d="M109.28 324.4h140a13.28 13.28 0 0 1 13.28 13.28V376a83.2 83.2 0 0 1-83.2 83.2A83.2 83.2 0 0 1 96 376v-38.32a13.28 13.28 0 0 1 13.28-13.28z" fill="#FF8888" /><path d="M179.2 498.8A91.32 91.32 0 0 1 88 407.6V324.4a8 8 0 0 1 8-8h166.4a8 8 0 0 1 8 8v83.2a91.32 91.32 0 0 1-91.2 91.2zM104 332.4v75.2a75.2 75.2 0 1 0 150.4 0V332.4z" fill="#2FB1EA" /><path d="M262.4 324.4h166.4v83.2a83.2 83.2 0 0 1-83.2 83.2 83.2 83.2 0 0 1-83.2-83.2V324.4z" fill="#CBECF9" /><path d="M275.68 324.4h140a13.28 13.28 0 0 1 13.28 13.28V376a83.2 83.2 0 0 1-83.2 83.2A83.2 83.2 0 0 1 262.4 376v-38.32a13.28 13.28 0 0 1 13.28-13.28z" fill="#FFFFFF" /><path d="M345.6 498.8a91.32 91.32 0 0 1-91.2-91.2V324.4a8 8 0 0 1 8-8h166.4a8 8 0 0 1 8 8v83.2a91.32 91.32 0 0 1-91.2 91.2zM270.4 332.4v75.2a75.2 75.2 0 0 0 150.4 0V332.4z" fill="#2FB1EA" /><path d="M428.8 324.4h166.4v83.2a83.2 83.2 0 0 1-83.2 83.2 83.2 83.2 0 0 1-83.2-83.2V324.4z" fill="#F97171" /><path d="M442.08 324.4h140a13.28 13.28 0 0 1 13.28 13.28V376a83.2 83.2 0 0 1-83.2 83.2A83.2 83.2 0 0 1 428.8 376v-38.32a13.28 13.28 0 0 1 13.28-13.28z" fill="#FF8888" /><path d="M512 498.8a91.32 91.32 0 0 1-91.2-91.2V324.4a8 8 0 0 1 8-8h166.4a8 8 0 0 1 8 8v83.2a91.32 91.32 0 0 1-91.2 91.2z m-75.2-166.4v75.2a75.2 75.2 0 0 0 150.4 0V332.4z" fill="#2FB1EA" /><path d="M595.2 324.4h166.4v83.2a83.2 83.2 0 0 1-83.2 83.2 83.2 83.2 0 0 1-83.2-83.2V324.4z" fill="#CBECF9" /><path d="M608.48 324.4h140a13.28 13.28 0 0 1 13.28 13.28V376a83.2 83.2 0 0 1-83.2 83.2A83.2 83.2 0 0 1 595.2 376v-38.32a13.28 13.28 0 0 1 13.28-13.28z" fill="#FFFFFF" /><path d="M678.4 498.8a91.32 91.32 0 0 1-91.2-91.2V324.4a8 8 0 0 1 8-8h166.4a8 8 0 0 1 8 8v83.2a91.32 91.32 0 0 1-91.2 91.2z m-75.2-166.4v75.2a75.2 75.2 0 0 0 150.4 0V332.4z" fill="#2FB1EA" /><path d="M761.6 324.4H928v83.2a83.2 83.2 0 0 1-83.2 83.2 83.2 83.2 0 0 1-83.2-83.2V324.4z" fill="#F97171" /><path d="M774.88 324.4h140a13.28 13.28 0 0 1 13.12 13.28V376a83.2 83.2 0 0 1-83.2 83.2A83.2 83.2 0 0 1 761.6 376v-38.32a13.28 13.28 0 0 1 13.28-13.28z" fill="#FF8888" /><path d="M844.8 498.8a91.32 91.32 0 0 1-91.2-91.2V324.4a8 8 0 0 1 8-8H928a8 8 0 0 1 8 8v83.2a91.32 91.32 0 0 1-91.2 91.2z m-75.2-166.4v75.2a75.2 75.2 0 0 0 150.4 0V332.4z" fill="#2FB1EA" /><path d="M268.28 590.2h130.24a24 24 0 0 1 24 24V848H244.28v-233.8a24 24 0 0 1 24-24z" fill="#CBECF9" /><path d="M268.28 618.2h130.24a24 24 0 0 1 24 24v162.28H244.28v-162.28a24 24 0 0 1 24-24z" fill="#FFFFFF" /><path d="M422.52 856H244.28a8 8 0 0 1-8-8v-233.8a32 32 0 0 1 32-32h130.24a32 32 0 0 1 32 32V848a8 8 0 0 1-8 8z m-170.24-16h162.24v-225.8a16 16 0 0 0-16-16H268.28a16 16 0 0 0-16 16z" fill="#2FB1EA" /><path d="M477.24 590.2m24 0l254.52 0q24 0 24 24l0 97.28q0 24-24 24l-254.52 0q-24 0-24-24l0-97.28q0-24 24-24Z" fill="#CBECF9" /><path d="M477.24 619.08m24 0l254.52 0q24 0 24 24l0 68.4q0 24-24 24l-254.52 0q-24 0-24-24l0-68.4q0-24 24-24Z" fill="#FFFFFF" /><path d="M755.72 743.48h-254.48a32 32 0 0 1-32-32v-97.28a32 32 0 0 1 32-32h254.52a32 32 0 0 1 32 32v97.28a32 32 0 0 1-32.04 32z m-254.52-145.28a16 16 0 0 0-16 16v97.28a16 16 0 0 0 16 16h254.52a16 16 0 0 0 16-16v-97.28a16 16 0 0 0-16-16z" fill="#2FB1EA" /><path d="M928 536m-20 0a20 20 0 1 0 40 0 20 20 0 1 0-40 0Z" fill="#D4FFD4" /><path d="M576 116m-16 0a16 16 0 1 0 32 0 16 16 0 1 0-32 0Z" fill="#D4FFD4" /><path d="M500 896m-12 0a12 12 0 1 0 24 0 12 12 0 1 0-24 0Z" fill="#D4FFD4" /><path d="M124 524m-8 0a8 8 0 1 0 16 0 8 8 0 1 0-16 0Z" fill="#D4FFD4" /><path d="M152 844m-4 0a4 4 0 1 0 8 0 4 4 0 1 0-8 0Z" fill="#D4FFD4" /><path d="M264 908m-20 0a20 20 0 1 0 40 0 20 20 0 1 0-40 0Z" fill="#FFBDBD" /><path d="M448 112m-16 0a16 16 0 1 0 32 0 16 16 0 1 0-32 0Z" fill="#FFBDBD" /><path d="M64 288m-12 0a12 12 0 1 0 24 0 12 12 0 1 0-24 0Z" fill="#FFBDBD" /><path d="M928 836m-8 0a8 8 0 1 0 16 0 8 8 0 1 0-16 0Z" fill="#FFBDBD" /><path d="M960 464m-4 0a4 4 0 1 0 8 0 4 4 0 1 0-8 0Z" fill="#FFBDBD" /><path d="M884 84m-20 0a20 20 0 1 0 40 0 20 20 0 1 0-40 0Z" fill="#BBF1FF" /><path d="M48 520m-16 0a16 16 0 1 0 32 0 16 16 0 1 0-32 0Z" fill="#BBF1FF" /><path d="M20 688m-12 0a12 12 0 1 0 24 0 12 12 0 1 0-24 0Z" fill="#BBF1FF" /><path d="M308 120m-8 0a8 8 0 1 0 16 0 8 8 0 1 0-16 0Z" fill="#BBF1FF" /><path d="M140 132m-4 0a4 4 0 1 0 8 0 4 4 0 1 0-8 0Z" fill="#BBF1FF" /><path d="M996 156m-20 0a20 20 0 1 0 40 0 20 20 0 1 0-40 0Z" fill="#FFF4C5" /><path d="M796 944m-16 0a16 16 0 1 0 32 0 16 16 0 1 0-32 0Z" fill="#FFF4C5" /><path d="M84 848m-12 0a12 12 0 1 0 24 0 12 12 0 1 0-24 0Z" fill="#FFF4C5" /><path d="M712 148m-8 0a8 8 0 1 0 16 0 8 8 0 1 0-16 0Z" fill="#FFF4C5" /><path d="M912 780m-4 0a4 4 0 1 0 8 0 4 4 0 1 0-8 0Z" fill="#FFF4C5" /></svg>